<?xml version="1.0" encoding="UTF-8" standalone="no"?>
<!-- Created with Inkscape (http://www.inkscape.org/) -->

<svg
   width="43.994087mm"
   height="49.799999mm"
   viewBox="0 0 43.994087 49.799999"
   version="1.1"
   id="svg1"
   xml:space="preserve"
   xmlns:xlink="http://www.w3.org/1999/xlink"
   xmlns="http://www.w3.org/2000/svg"
   xmlns:svg="http://www.w3.org/2000/svg"><defs
     id="defs1"><clipPath
       clipPathUnits="userSpaceOnUse"
       id="clipPath50"><path
         style="fill:none;stroke-width:0.999998"
         d="M 26.314842,28.907813 V 18.275952 l 4.31092,-3.82e-4 v 10.632243 z"
         id="path51" /></clipPath><clipPath
       clipPathUnits="userSpaceOnUse"
       id="clipPath51"><path
         style="vector-effect:none;fill:none;fill-opacity:1;stroke-width:0.999998"
         d="M 17.427919,28.907609 V 18.282804 h 4.890302 v 10.604299 z"
         id="path52" /></clipPath><clipPath
       clipPathUnits="userSpaceOnUse"
       id="clipPath52"><path
         style="fill:none;stroke-width:0.999998"
         d="m 32.392993,18.629127 h 2.099002 v 10.624852 h -2.099002 z"
         id="path53" /></clipPath><clipPath
       clipPathUnits="userSpaceOnUse"
       id="clipPath53"><path
         style="fill:none;stroke-width:0.999998"
         d="M 26.314842,28.907813 V 18.275952 l 4.31092,-3.82e-4 v 10.632243 z"
         id="path54" /></clipPath><clipPath
       clipPathUnits="userSpaceOnUse"
       id="clipPath54"><path
         style="vector-effect:none;fill:none;fill-opacity:1;stroke-width:0.999998"
         d="M 17.427919,28.907609 V 18.282804 h 4.890302 v 10.604299 z"
         id="path55" /></clipPath><clipPath
       clipPathUnits="userSpaceOnUse"
       id="clipPath70"><use
         x="0"
         y="0"
         xlink:href="#path1"
         id="use70"
         style="display:inline;fill:#000000;stroke-width:0.999999" /></clipPath><clipPath
       clipPathUnits="userSpaceOnUse"
       id="clipPath71"><use
         x="0"
         y="0"
         xlink:href="#path1"
         id="use71"
         style="display:inline;fill:#000000;stroke-width:0.999999" /></clipPath><clipPath
       clipPathUnits="userSpaceOnUse"
       id="clipPath72"><use
         x="0"
         y="0"
         xlink:href="#path1"
         id="use72"
         style="display:inline;fill:#000000;stroke-width:0.999999" /></clipPath></defs><g
     id="layer2"
     style="display:inline;fill:#000000"
     transform="translate(-7.4191376e-7,-0.49999985)"><g
       id="layer3"
       style="display:inline"><path
         style="display:inline;fill:#000000;fill-opacity:1;stroke-width:2.5005;stroke-miterlimit:3.9;stroke-dasharray:none"
         id="path1"
         transform="matrix(0.61387752,0,0,0.61387752,-33.04136,-8.8410129)"
         d="m 88.246237,96.340085 -33.011462,-19.059176 -1.410746,-2.443484 -1e-6,-38.118352 1.410746,-2.443485 33.011461,-19.059177 2.821493,0 33.011462,19.059176 1.41075,2.443484 0,38.118352 -1.41075,2.443484 -33.01146,19.059177 z" /><path
         style="display:inline;fill:#d94b26;fill-opacity:1;stroke-width:2.5005;stroke-miterlimit:3.9;stroke-dasharray:none"
         id="path12"
         transform="matrix(0.61387752,0,0,0.61387752,-33.04136,-8.8410129)"
         d="m 88.246237,96.340085 -33.011462,-19.059176 -1.410746,-2.443484 -1e-6,-38.118352 1.410746,-2.443485 33.011461,-19.059177 2.821493,0 33.011462,19.059176 1.41075,2.443484 0,38.118352 -1.41075,2.443484 -33.01146,19.059177 z" /><path
         style="display:none;fill:#9522c4;fill-opacity:1;stroke-width:2.5005;stroke-miterlimit:3.9;stroke-dasharray:none"
         id="path13"
         transform="matrix(0.61387752,0,0,0.61387752,-33.04136,-8.8410129)"
         d="m 88.246237,96.340085 -33.011462,-19.059176 -1.410746,-2.443484 -1e-6,-38.118352 1.410746,-2.443485 33.011461,-19.059177 2.821493,0 33.011462,19.059176 1.41075,2.443484 0,38.118352 -1.41075,2.443484 -33.01146,19.059177 z" /><path
         style="font-variation-settings:normal;opacity:1;fill:none;fill-opacity:1;stroke:#eeeeee;stroke-width:0.875;stroke-linecap:round;stroke-linejoin:miter;stroke-miterlimit:4;stroke-dasharray:none;stroke-dashoffset:0;stroke-opacity:1;stop-color:#000000;stop-opacity:1"
         d="M 21.997047,50.799999 V 42.462"
         id="path2"
         clip-path="url(#clipPath72)" /><path
         style="font-variation-settings:normal;opacity:1;fill:none;fill-opacity:1;stroke:#eeeeee;stroke-width:0.875;stroke-linecap:round;stroke-linejoin:miter;stroke-miterlimit:4;stroke-dasharray:none;stroke-dashoffset:0;stroke-opacity:1;stop-color:#000000;stop-opacity:1"
         d="m 43.994091,12.699999 -7.220919,4.168999"
         id="path33"
         clip-path="url(#clipPath70)" /><path
         style="font-variation-settings:normal;opacity:1;fill:none;fill-opacity:1;stroke:#eeeeee;stroke-width:0.875;stroke-linecap:round;stroke-linejoin:miter;stroke-miterlimit:4;stroke-dasharray:none;stroke-dashoffset:0;stroke-opacity:1;stop-color:#000000;stop-opacity:1"
         d="M 7.1511886e-7,12.7 7.2209197,16.868999"
         id="path32"
         clip-path="url(#clipPath71)" /></g><g
       id="layer5"
       style="font-size:14.3774px;line-height:1.25;font-family:'URW Gothic';-inkscape-font-specification:'URW Gothic, Normal';letter-spacing:0px;word-spacing:0px;display:none;fill:#eeeeee;stroke-width:0.264583"
       transform="scale(0.90423876,1.1059026)"><text
         xml:space="preserve"
         x="7.1341739"
         y="29.253868"
         id="text4"
         style="font-style:italic;font-size:14.3771px;stroke-width:0.254816">A</text><text
         xml:space="preserve"
         x="14.022795"
         y="28.907814"
         id="text23"
         style="font-size:14.3774px;stroke-width:0.264583"
         clip-path="url(#clipPath54)"
         transform="translate(0.13492027,0.34626719)">R</text><text
         xml:space="preserve"
         x="22.889931"
         y="29.253979"
         id="text24">i</text><text
         xml:space="preserve"
         x="23.724546"
         y="28.907814"
         id="text25"
         clip-path="url(#clipPath53)"
         transform="translate(0.1350306,0.34616569)">E<tspan
   id="tspan24"
   style="stroke-width:0.264583"
   x="23.724546"
   y="28.907814" /></text><text
         xml:space="preserve"
         x="31.30031"
         y="29.253979"
         id="text26"
         clip-path="url(#clipPath52)">L</text><text
         xml:space="preserve"
         x="16166.742"
         y="8944.0127"
         id="text43"
         transform="matrix(0.00970207,0,0,0.00968716,-121.95114,-57.40289)"
         style="font-style:normal;font-variant:normal;font-weight:normal;font-stretch:normal;font-size:592.735px;line-height:1.25;font-family:Dhurjati;-inkscape-font-specification:'Dhurjati, Normal';font-variant-ligatures:normal;font-variant-caps:normal;font-variant-numeric:normal;font-variant-east-asian:normal;letter-spacing:0px;word-spacing:0px;display:inline;fill-rule:evenodd;stroke-width:770.229;stroke-linejoin:round">OS</text></g><g
       id="g42"
       style="font-size:14.3774px;line-height:1.25;font-family:'URW Gothic';-inkscape-font-specification:'URW Gothic, Normal';letter-spacing:0px;word-spacing:0px;display:none;fill:#eeeeee;stroke-width:0.258292"
       transform="matrix(0.94882612,0,0,1.1059026,-0.32514537,0)"><text
         xml:space="preserve"
         x="7.1341739"
         y="29.253868"
         id="text38"
         style="font-style:italic;font-size:14.3771px;stroke-width:0.248757">A</text><text
         xml:space="preserve"
         x="14.022795"
         y="28.907814"
         id="text39"
         style="font-size:14.3774px;stroke-width:0.258292"
         clip-path="url(#clipPath51)"
         transform="translate(0.13492027,0.34626719)">R</text><text
         xml:space="preserve"
         x="22.889931"
         y="29.253979"
         id="text40"
         style="stroke-width:0.258292">i</text><text
         xml:space="preserve"
         x="23.724546"
         y="28.907814"
         id="text41"
         clip-path="url(#clipPath50)"
         transform="translate(0.1350306,0.34616569)"
         style="stroke-width:0.258292">E<tspan
   id="tspan40"
   style="stroke-width:0.258292"
   x="23.724546"
   y="28.907814" /></text><text
         xml:space="preserve"
         x="31.30031"
         y="29.253979"
         id="text42"
         style="stroke-width:0.258292">L</text></g><g
       id="g6"
       style="font-size:14.3774px;line-height:1.25;font-family:'URW Gothic';-inkscape-font-specification:'URW Gothic, Normal';letter-spacing:0px;word-spacing:0px;display:inline;fill:#eeeeee;stroke-width:0.258292"
       transform="matrix(0.94882612,0,0,1.1059026,-0.32514537,0)"><path
         d="M 7.292322,29.253868 H 8.4137358 L 10.627809,25.67397 h 4.945723 l 0.877003,3.579898 H 17.61508 L 15.012825,18.629191 h -1.1933 z m 3.924948,-4.543163 2.97606,-4.873837 1.150168,4.873837 z"
         id="text1"
         style="font-style:italic;font-size:14.3771px;stroke-width:0.248757"
         aria-label="A" /><path
         d="m 19.184281,24.939652 c 2.041591,-0.215661 3.134274,-1.337099 3.134274,-3.249293 0,-1.322721 -0.560719,-2.329139 -1.595892,-2.889857 -0.66136,-0.359435 -1.567136,-0.517587 -2.976122,-0.517587 h -2.631064 v 10.624899 h 1.063928 v -9.661613 h 1.495249 c 1.121438,0 1.869062,0.115019 2.444158,0.38819 0.718871,0.345057 1.121438,1.063927 1.121438,2.027213 0,1.207702 -0.546341,1.969704 -1.610269,2.242875 -0.503209,0.129396 -1.193324,0.186906 -2.372271,0.186906 l 3.579973,4.816429 h 1.32272 z"
         id="text2"
         clip-path="url(#clipPath51)"
         transform="translate(0.13492027,0.34626719)"
         aria-label="R" /><path
         d="m 23.795707,29.253979 h 1.063928 v -7.864438 h -1.063928 z m 0,-8.813347 h 1.063928 V 18.62908 h -1.063928 z"
         id="text3"
         aria-label="i" /><path
         d="m 24.817229,28.907814 h 5.80847 v -0.963286 h -4.744543 v -3.92503 h 4.586391 v -0.963286 h -4.586391 v -3.810011 h 4.744543 v -0.963286 h -5.80847 z"
         id="text5"
         clip-path="url(#clipPath50)"
         transform="translate(0.1350306,0.34616569)"
         aria-label="E" /><path
         d="m 32.392993,29.253979 h 5.463412 V 28.290693 H 33.45692 V 18.62908 h -1.063927 z"
         id="text6"
         aria-label="L" /></g><g
       id="g12"
       style="font-size:14.3774px;line-height:1.25;font-family:'URW Gothic';-inkscape-font-specification:'URW Gothic, Normal';letter-spacing:0px;word-spacing:0px;display:none;fill:#eeeeee;stroke-width:0.264583"
       transform="scale(0.90423876,1.1059026)"><path
         d="M 7.292322,29.253868 H 8.4137358 L 10.627809,25.67397 h 4.945723 l 0.877003,3.579898 H 17.61508 L 15.012825,18.629191 h -1.1933 z m 3.924948,-4.543163 2.97606,-4.873837 1.150168,4.873837 z"
         id="text7"
         style="font-style:italic;font-size:14.3771px;stroke-width:0.254816"
         aria-label="A" /><path
         d="m 19.184281,24.939652 c 2.041591,-0.215661 3.134274,-1.337099 3.134274,-3.249293 0,-1.322721 -0.560719,-2.329139 -1.595892,-2.889857 -0.66136,-0.359435 -1.567136,-0.517587 -2.976122,-0.517587 h -2.631064 v 10.624899 h 1.063928 v -9.661613 h 1.495249 c 1.121438,0 1.869062,0.115019 2.444158,0.38819 0.718871,0.345057 1.121438,1.063927 1.121438,2.027213 0,1.207702 -0.546341,1.969704 -1.610269,2.242875 -0.503209,0.129396 -1.193324,0.186906 -2.372271,0.186906 l 3.579973,4.816429 h 1.32272 z"
         id="text8"
         clip-path="url(#clipPath54)"
         transform="translate(0.13492027,0.34626719)"
         aria-label="R" /><path
         d="m 23.795707,29.253979 h 1.063928 v -7.864438 h -1.063928 z m 0,-8.813347 h 1.063928 V 18.62908 h -1.063928 z"
         id="text9"
         aria-label="i" /><path
         d="m 24.817229,28.907814 h 5.80847 v -0.963286 h -4.744543 v -3.92503 h 4.586391 v -0.963286 h -4.586391 v -3.810011 h 4.744543 v -0.963286 h -5.80847 z"
         id="text10"
         clip-path="url(#clipPath53)"
         transform="translate(0.1350306,0.34616569)"
         aria-label="E" /><path
         d="m 32.392993,29.253979 h 5.463412 V 28.290693 H 33.45692 V 18.62908 h -1.063927 z"
         id="text11"
         clip-path="url(#clipPath52)"
         aria-label="L" /><path
         d="m 16311.86,8905.8596 q 27.252,0 27.252,-19.0765 v -171.0074 q 0,-19.0766 -27.252,-19.0766 h -29.977 q -27.934,0 -27.934,19.0766 v 171.0074 q 0,19.0765 27.934,19.0765 z m -123.316,-196.2157 q 0,-23.1643 23.164,-36.7904 23.846,-14.3074 57.23,-14.3074 h 55.867 q 52.46,0 73.581,29.2961 6.813,9.5382 6.813,21.8017 v 183.271 q 0,23.1643 -23.846,37.4717 -23.164,13.6261 -56.548,13.6261 h -55.867 q -52.461,0 -73.581,-29.2961 -6.813,-9.5383 -6.813,-21.8017 z m 417.64,115.1405 q 0,-19.0765 -27.934,-19.0765 h -40.197 q -53.141,0 -73.58,-28.6148 -6.814,-9.5383 -6.814,-21.8018 v -45.6474 q 0,-23.1643 23.165,-36.7904 23.845,-14.3074 57.229,-14.3074 h 53.142 q 33.384,0 56.548,13.6261 23.846,13.6261 23.846,37.4717 v 27.9335 h -65.405 v -21.8017 q 0,-19.0766 -27.934,-19.0766 h -27.252 q -27.933,0 -27.933,19.0766 v 32.7026 q 0,20.4391 27.933,19.0765 h 40.197 q 33.384,0 56.548,13.6261 23.846,13.6261 23.846,37.4718 v 74.2622 q 0,23.8456 -24.527,37.4717 -22.483,13.6261 -55.867,13.6261 h -53.142 q -52.46,0 -73.58,-29.2961 -6.814,-9.5383 -6.814,-21.8017 v -38.1531 h 65.406 v 32.0213 q 0,19.0765 27.933,19.0765 h 27.252 q 27.934,0 27.934,-19.0765 z"
         id="text12"
         style="font-size:592.735px;font-family:Dhurjati;-inkscape-font-specification:'Dhurjati, Normal';fill-rule:evenodd;stroke-width:770.229;stroke-linejoin:round"
         transform="matrix(0.00970207,0,0,0.00968716,-121.95114,-57.40289)"
         aria-label="OS" /></g></g></svg>
