<svg id="g" width="43.994mm" height="49.8mm" version="1.1" viewBox="0 0 43.994 49.8" xml:space="preserve" xmlns="http://www.w3.org/2000/svg" xmlns:xlink="http://www.w3.org/1999/xlink"><defs id="h"><clipPath id="f"><path id="i" d="m26.315 28.908v-10.632l4.3109-3.82e-4v10.632z" fill="none"/></clipPath><clipPath id="e"><path id="j" d="m17.428 28.908v-10.625h4.8903v10.604z" fill="none"/></clipPath><clipPath id="d"><use id="k" fill="#000000" xlink:href="#a"/></clipPath><clipPath id="c"><use id="l" fill="#000000" xlink:href="#a"/></clipPath><clipPath id="b"><use id="m" fill="#000000" xlink:href="#a"/></clipPath></defs><g id="n" transform="translate(-7.4191e-7 -.5)"><g id="o"><path id="a" transform="matrix(.61388 0 0 .61388 -33.041 -8.841)" d="m88.246 96.34-33.011-19.059-1.4107-2.4435-1e-6 -38.118 1.4107-2.4435 33.011-19.059h2.8215l33.011 19.059 1.4108 2.4435v38.118l-1.4108 2.4435-33.011 19.059z" fill="none"/><path id="p" transform="matrix(.61388 0 0 .61388 -33.041 -8.841)" d="m88.246 96.34-33.011-19.059-1.4107-2.4435-1e-6 -38.118 1.4107-2.4435 33.011-19.059h2.8215l33.011 19.059 1.4108 2.4435v38.118l-1.4108 2.4435-33.011 19.059z" fill="#d94b26" stroke-miterlimit="3.9" stroke-width="2.5005"/><path id="q" d="m21.997 50.8v-8.338" clip-path="url(#b)" fill="none" stop-color="#000000" stroke="#eee" stroke-linecap="round" stroke-width=".875" style="font-variation-settings:normal"/><path id="r" d="m43.994 12.7-7.2209 4.169" clip-path="url(#d)" fill="none" stop-color="#000000" stroke="#eee" stroke-linecap="round" stroke-width=".875" style="font-variation-settings:normal"/><path id="s" d="m7.1512e-7 12.7 7.2209 4.169" clip-path="url(#c)" fill="none" stop-color="#000000" stroke="#eee" stroke-linecap="round" stroke-width=".875" style="font-variation-settings:normal"/></g><g id="t" transform="matrix(.94883 0 0 1.1059 -.32515 0)" fill="#eee" stroke-width=".25829"><path id="u" d="m7.2923 29.254h1.1214l2.2141-3.5799h4.9457l0.877 3.5799h1.1645l-2.6023-10.625h-1.1933zm3.9249-4.5432 2.9761-4.8738 1.1502 4.8738z" stroke-width=".24876" aria-label="A"/><path id="v" transform="translate(.13492 .34627)" d="m19.184 24.94c2.0416-0.21566 3.1343-1.3371 3.1343-3.2493 0-1.3227-0.56072-2.3291-1.5959-2.8899-0.66136-0.35944-1.5671-0.51759-2.9761-0.51759h-2.6311v10.625h1.0639v-9.6616h1.4952c1.1214 0 1.8691 0.11502 2.4442 0.38819 0.71887 0.34506 1.1214 1.0639 1.1214 2.0272 0 1.2077-0.54634 1.9697-1.6103 2.2429-0.50321 0.1294-1.1933 0.18691-2.3723 0.18691l3.58 4.8164h1.3227z" clip-path="url(#e)" aria-label="R"/><path id="w" d="m23.796 29.254h1.0639v-7.8644h-1.0639zm0-8.8133h1.0639v-1.8116h-1.0639z" aria-label="i"/><path id="x" transform="translate(.13503 .34617)" d="m24.817 28.908h5.8085v-0.96329h-4.7445v-3.925h4.5864v-0.96329h-4.5864v-3.81h4.7445v-0.96329h-5.8085z" clip-path="url(#f)" aria-label="E"/><path id="y" d="m32.393 29.254h5.4634v-0.96329h-4.3995v-9.6616h-1.0639z" aria-label="L"/></g></g></svg>
